<svg xmlns="http://www.w3.org/2000/svg" width="21px" height="21px" viewBox="0 0 24 24" fill="currentColor">
    <path d="M12.008 17.474a.926.926 0 0 0 .681-.278.925.925 0 0 0 .278-.68.927.927 0 0 0-.278-.681.925.925 0 0 0-.68-.278.926.926 0 0 0-.68.278.924.924 0 0 0-.279.68c0 .268.093.495.278.68a.924.924 0 0 0 .68.279Zm-.687-3.48h1.327c.013-.473.087-.854.223-1.142.135-.287.445-.67.93-1.147.44-.426.77-.825.99-1.195.22-.37.331-.799.331-1.284 0-.842-.297-1.5-.891-1.972-.594-.472-1.303-.709-2.127-.709-.812 0-1.484.214-2.016.643a3.713 3.713 0 0 0-1.15 1.519l1.229.475c.119-.332.324-.649.617-.95.292-.302.724-.452 1.297-.452.59 0 1.028.162 1.31.485.283.324.424.68.424 1.069 0 .34-.095.648-.285.922-.19.275-.432.544-.725.807-.635.574-1.04 1.039-1.218 1.394-.177.355-.266.867-.266 1.537Zm.681 7.304a9.05 9.05 0 0 1-3.626-.733 9.395 9.395 0 0 1-2.954-1.99 9.407 9.407 0 0 1-1.988-2.951 9.034 9.034 0 0 1-.732-3.622 9.05 9.05 0 0 1 .733-3.626 9.394 9.394 0 0 1 1.99-2.954 9.406 9.406 0 0 1 2.951-1.988 9.034 9.034 0 0 1 3.622-.732 9.05 9.05 0 0 1 3.626.733 9.394 9.394 0 0 1 2.954 1.99 9.406 9.406 0 0 1 1.988 2.951 9.034 9.034 0 0 1 .732 3.622 9.05 9.05 0 0 1-.733 3.626 9.395 9.395 0 0 1-1.99 2.954 9.405 9.405 0 0 1-2.951 1.988 9.033 9.033 0 0 1-3.622.732ZM12 19.9c2.198 0 4.064-.767 5.598-2.3 1.534-1.534 2.301-3.4 2.301-5.599 0-2.198-.767-4.064-2.3-5.598C16.064 4.868 14.198 4.1 12 4.1c-2.198 0-4.064.767-5.598 2.3C4.868 7.936 4.1 9.802 4.1 12c0 2.198.767 4.064 2.3 5.598C7.936 19.132 9.802 19.9 12 19.9Z"></path>
</svg>