<svg xmlns="http://www.w3.org/2000/svg" width="24px" height="24px" viewBox="0 0 24 24" fill="currentColor">
    <path d="M6 19.615c-.444 0-.825-.158-1.14-.474A1.555 1.555 0 0 1 4.384 18c0-.444.158-.825.474-1.14A1.556 1.556 0 0 1 6 16.384c.444 0 .824.158 1.14.474.317.316.475.697.475 1.141 0 .444-.158.825-.474 1.14A1.555 1.555 0 0 1 6 19.616Zm6 0c-.444 0-.825-.158-1.14-.474A1.555 1.555 0 0 1 10.384 18c0-.444.158-.825.474-1.14A1.556 1.556 0 0 1 12 16.384c.444 0 .825.158 1.14.474.317.316.475.697.475 1.141 0 .444-.158.825-.474 1.14a1.555 1.555 0 0 1-1.141.475Zm6 0c-.444 0-.825-.158-1.14-.474A1.555 1.555 0 0 1 16.384 18c0-.444.158-.825.474-1.14A1.556 1.556 0 0 1 18 16.384c.444 0 .825.158 1.14.474.317.316.475.697.475 1.141 0 .444-.158.825-.474 1.14a1.555 1.555 0 0 1-1.141.475Zm-12-6c-.444 0-.825-.158-1.14-.474A1.555 1.555 0 0 1 4.384 12c0-.444.158-.825.474-1.14A1.556 1.556 0 0 1 6 10.384c.444 0 .824.158 1.14.474.317.316.475.697.475 1.141 0 .444-.158.825-.474 1.14A1.555 1.555 0 0 1 6 13.616Zm6 0c-.444 0-.825-.158-1.14-.474A1.555 1.555 0 0 1 10.384 12c0-.444.158-.825.474-1.14A1.556 1.556 0 0 1 12 10.384c.444 0 .825.158 1.14.474.317.316.475.697.475 1.141 0 .444-.158.825-.474 1.14a1.555 1.555 0 0 1-1.141.475Zm6 0c-.444 0-.825-.158-1.14-.474A1.555 1.555 0 0 1 16.384 12c0-.444.158-.825.474-1.14A1.556 1.556 0 0 1 18 10.384c.444 0 .825.158 1.14.474.317.316.475.697.475 1.141 0 .444-.158.825-.474 1.14a1.555 1.555 0 0 1-1.141.475Zm-12-6c-.444 0-.825-.158-1.14-.474A1.556 1.556 0 0 1 4.384 6c0-.444.158-.825.474-1.14A1.556 1.556 0 0 1 6 4.384c.444 0 .824.158 1.14.474.317.316.475.697.475 1.141 0 .444-.158.824-.474 1.14A1.556 1.556 0 0 1 6 7.616Zm6 0c-.444 0-.825-.158-1.14-.474A1.556 1.556 0 0 1 10.384 6c0-.444.158-.825.474-1.14A1.556 1.556 0 0 1 12 4.384c.444 0 .825.158 1.14.474.317.316.475.697.475 1.141 0 .444-.158.824-.474 1.14A1.555 1.555 0 0 1 12 7.616Zm6 0c-.444 0-.825-.158-1.14-.474A1.556 1.556 0 0 1 16.384 6c0-.444.158-.825.474-1.14A1.556 1.556 0 0 1 18 4.384c.444 0 .825.158 1.14.474.317.316.475.697.475 1.141 0 .444-.158.824-.474 1.14A1.555 1.555 0 0 1 18 7.616Z"></path>
</svg>