<svg xmlns="http://www.w3.org/2000/svg" width="21px" height="21px" viewBox="0 0 24 24" fill="currentColor">
    <path d="M2.702 20.735V4.388c0-.474.166-.876.498-1.208a1.643 1.643 0 0 1 1.207-.498h15.186c.473 0 .875.166 1.207.498.332.332.498.734.498 1.207v11.226c0 .473-.166.875-.498 1.207a1.643 1.643 0 0 1-1.207.498H6.12l-3.417 3.417Zm2.832-4.816H19.59a.294.294 0 0 0 .212-.096.294.294 0 0 0 .096-.212V4.388a.294.294 0 0 0-.096-.211.294.294 0 0 0-.212-.096H4.41a.294.294 0 0 0-.212.096.294.294 0 0 0-.096.211v12.956l1.433-1.425Z"></path>
</svg>