<svg xmlns="http://www.w3.org/2000/svg" width="50px" height="50px" viewBox="0 0 24 24" fill="currentColor">
    <path fill-rule="evenodd" d="M3 3h6.5v1.5h-5v5H3V3Zm0 18h6.5v-1.5h-5v-5H3V21ZM21 3v6.5h-1.5v-5h-5V3H21Zm0 18h-6.5v-1.5h5v-5H21V21ZM12.16 5.587 6.335 7.461a129.144 129.144 0 0 0 .337 4.12c.089.896.192 1.819.304 2.55.056.365.116.697.18.96.032.132.069.262.112.377.033.088.107.274.257.424.683.683 1.8 1.342 2.678 1.807.451.24.863.44 1.163.58.26.123.519.23.792.321a6.32 6.32 0 0 0 .793-.32c.3-.14.711-.341 1.163-.58.877-.466 1.993-1.125 2.676-1.808.15-.15.225-.336.258-.423.043-.116.08-.246.112-.377.064-.264.124-.596.18-.96.111-.732.215-1.655.304-2.551a129.043 129.043 0 0 0 .337-4.12L12.16 5.587ZM7.953 9.023l-.038-.495 4.243-1.365 4.244 1.365a139.724 139.724 0 0 1-.251 2.906 51.388 51.388 0 0 1-.294 2.471c-.053.348-.106.63-.155.832a2.363 2.363 0 0 1-.045.165c-.522.49-1.411 1.029-2.246 1.472a25.955 25.955 0 0 1-1.253.62 25.942 25.942 0 0 1-1.253-.62c-.835-.443-1.724-.982-2.246-1.472a2.376 2.376 0 0 1-.046-.165 10.344 10.344 0 0 1-.154-.832 50.015 50.015 0 0 1-.294-2.471c-.087-.886-.16-1.76-.212-2.411Zm7.681 5.94.006-.012-.006.012Zm-6.952 0-.006-.012a.112.112 0 0 1 .006.012Zm5.907-4.025a.75.75 0 1 0-1.217-.877l-1.589 2.205-1.15-1.064a.75.75 0 1 0-1.019 1.101l1.773 1.64a.75.75 0 0 0 1.117-.112l2.085-2.893Z" clip-rule="evenodd"></path>
    <path fill-rule="evenodd" d="M3 3h6.5v1.5h-5v5H3V3Zm0 18h6.5v-1.5h-5v-5H3V21ZM21 3v6.5h-1.5v-5h-5V3H21Zm0 18h-6.5v-1.5h5v-5H21V21ZM12.16 5.587 6.335 7.461a129.144 129.144 0 0 0 .337 4.12c.089.896.192 1.819.304 2.55.056.365.116.697.18.96.032.132.069.262.112.377.033.088.107.274.257.424.683.683 1.8 1.342 2.678 1.807.451.24.863.44 1.163.58.26.123.519.23.792.321a6.32 6.32 0 0 0 .793-.32c.3-.14.711-.341 1.163-.58.877-.466 1.993-1.125 2.676-1.808.15-.15.225-.336.258-.423.043-.116.08-.246.112-.377.064-.264.124-.596.18-.96.111-.732.215-1.655.304-2.551a129.043 129.043 0 0 0 .337-4.12L12.16 5.587ZM7.953 9.023l-.038-.495 4.243-1.365 4.244 1.365a139.724 139.724 0 0 1-.251 2.906 51.388 51.388 0 0 1-.294 2.471c-.053.348-.106.63-.155.832a2.363 2.363 0 0 1-.045.165c-.522.49-1.411 1.029-2.246 1.472a25.955 25.955 0 0 1-1.253.62 25.942 25.942 0 0 1-1.253-.62c-.835-.443-1.724-.982-2.246-1.472a2.376 2.376 0 0 1-.046-.165 10.344 10.344 0 0 1-.154-.832 50.015 50.015 0 0 1-.294-2.471c-.087-.886-.16-1.76-.212-2.411Zm7.681 5.94.006-.012-.006.012Zm-6.952 0-.006-.012a.112.112 0 0 1 .006.012Zm5.907-4.025a.75.75 0 1 0-1.217-.877l-1.589 2.205-1.15-1.064a.75.75 0 1 0-1.019 1.101l1.773 1.64a.75.75 0 0 0 1.117-.112l2.085-2.893Z" clip-rule="evenodd"></path>
</svg>