<svg xmlns="http://www.w3.org/2000/svg" width="50px" height="50px" viewBox="0 0 24 24" fill="currentColor">
    <path fill-rule="evenodd" d="M15.869 4.85h-1.5v4.326h-2.64v1.5h2.64v2.26h-2.64v1.5h2.64v4.583h1.5v-2.193l1.015.003a2.75 2.75 0 0 0 2.758-2.75v-1.426h2.107v-1.5h-2.107V9.716a2.75 2.75 0 0 0-2.743-2.75l-1.03-.003V4.85Zm-5.637.03v14.17h-1.5v-2.115l-1.04-.002a2.75 2.75 0 0 1-2.742-2.75v-1.437h-2.1v-1.5h2.1V9.819a2.75 2.75 0 0 1 2.757-2.75l1.025.003V4.881h1.5ZM6.45 9.82a1.25 1.25 0 0 1 1.253-1.25l1.02.002v6.863l-1.027-.002a1.25 1.25 0 0 1-1.246-1.25V9.819Zm9.428-1.357v6.863l1.01.003a1.25 1.25 0 0 0 1.254-1.25V9.716a1.25 1.25 0 0 0-1.247-1.25l-1.017-.003Z" clip-rule="evenodd"></path>
</svg>