<svg xmlns="http://www.w3.org/2000/svg" width="21px" height="21px" viewBox="0 0 24 24" fill="currentColor">
    <path d="M12.029 20.5c-2.361 0-4.368-.826-6.021-2.48-1.653-1.652-2.48-3.659-2.48-6.02 0-2.263.768-4.204 2.304-5.822 1.535-1.619 3.415-2.495 5.64-2.63a5.728 5.728 0 0 1 .83.062 5.298 5.298 0 0 0-1.22 1.728A5.228 5.228 0 0 0 10.63 7.5c0 1.639.573 3.032 1.72 4.18 1.148 1.146 2.54 1.72 4.18 1.72.775 0 1.498-.151 2.169-.454a5.215 5.215 0 0 0 1.712-1.219 5.24 5.24 0 0 1 .061.83c-.128 2.225-1.002 4.105-2.62 5.64-1.619 1.535-3.56 2.303-5.822 2.303Zm0-1.5c1.466 0 2.783-.404 3.95-1.212a7.013 7.013 0 0 0 2.55-3.163c-.334.083-.667.15-1 .2-.334.05-.667.075-1 .075-2.05 0-3.796-.72-5.238-2.162C9.85 11.296 9.13 9.55 9.13 7.5c0-.333.025-.667.075-1 .05-.333.116-.667.2-1A7.013 7.013 0 0 0 6.24 8.05C5.433 9.217 5.03 10.533 5.03 12c0 1.933.683 3.583 2.05 4.95C8.446 18.317 10.096 19 12.03 19Z"></path>
</svg>