<svg xmlns="http://www.w3.org/2000/svg" width="1em" height="1em" viewBox="0 0 24 24" fill="currentColor">
    <path d="M12 15c.833 0 1.542-.292 2.125-.875A2.893 2.893 0 0 0 15 12c0-.833-.292-1.542-.875-2.125A2.893 2.893 0 0 0 12 9c-.833 0-1.542.292-2.125.875A2.893 2.893 0 0 0 9 12c0 .833.292 1.542.875 2.125A2.893 2.893 0 0 0 12 15Zm0 1.5c-1.249 0-2.31-.438-3.187-1.313C7.938 14.31 7.5 13.248 7.5 12c0-1.249.438-2.31 1.313-3.187C9.69 7.938 10.751 7.5 12 7.5c1.249 0 2.31.438 3.187 1.313.875.876 1.313 1.938 1.313 3.187 0 1.249-.438 2.31-1.313 3.187-.876.875-1.938 1.313-3.187 1.313Zm-7-3.75H1.25v-1.5H5v1.5Zm17.75 0H19v-1.5h3.75v1.5ZM11.25 5V1.25h1.5V5h-1.5Zm0 17.75V19h1.5v3.75h-1.5ZM6.573 7.577 4.231 5.315l1.06-1.11 2.255 2.318-.973 1.054ZM18.71 19.794l-2.271-2.332.988-1.039 2.342 2.262-1.06 1.11Zm-2.287-13.22 2.262-2.343 1.11 1.06-2.318 2.255-1.054-.973ZM4.206 18.709l2.332-2.271 1.02.988-2.252 2.352-1.1-1.07Z"></path>
</svg>