<svg xmlns="http://www.w3.org/2000/svg" width="14px" height="14px" viewBox="0 0 24 24" fill="currentColor">
    <path d="M11.31 16.649h1.4V11.02h-1.4v5.629Zm.687-7.28a.75.75 0 0 0 .55-.217.738.738 0 0 0 .22-.547.751.751 0 0 0-.217-.55.738.738 0 0 0-.547-.22.75.75 0 0 0-.55.217.738.738 0 0 0-.22.547.75.75 0 0 0 .764.77Zm.005 11.93a9.05 9.05 0 0 1-3.626-.734 9.395 9.395 0 0 1-2.954-1.99 9.407 9.407 0 0 1-1.988-2.951 9.034 9.034 0 0 1-.732-3.622 9.05 9.05 0 0 1 .733-3.626 9.394 9.394 0 0 1 1.99-2.954 9.406 9.406 0 0 1 2.951-1.988 9.034 9.034 0 0 1 3.622-.732 9.05 9.05 0 0 1 3.626.733 9.394 9.394 0 0 1 2.954 1.99 9.406 9.406 0 0 1 1.988 2.951 9.034 9.034 0 0 1 .732 3.622 9.05 9.05 0 0 1-.733 3.626 9.394 9.394 0 0 1-1.99 2.954 9.405 9.405 0 0 1-2.951 1.988 9.033 9.033 0 0 1-3.622.732Zm-.002-1.4c2.198 0 4.064-.767 5.598-2.3 1.534-1.534 2.301-3.4 2.301-5.599 0-2.198-.767-4.064-2.3-5.598C16.064 4.868 14.198 4.1 12 4.1c-2.198 0-4.064.767-5.598 2.3C4.868 7.936 4.1 9.802 4.1 12c0 2.198.767 4.064 2.3 5.598C7.936 19.132 9.802 19.9 12 19.9Z"></path>
</svg>