<svg xmlns="http://www.w3.org/2000/svg" width="14px" height="14px" viewBox="0 0 24 24" fill="#ffffff">
    <path d="m19.441 20.403-6.197-6.2a5.386 5.386 0 0 1-1.707.955 5.993 5.993 0 0 1-1.981.336c-1.674 0-3.09-.578-4.245-1.734-1.155-1.156-1.733-2.568-1.733-4.237 0-1.67.577-3.083 1.731-4.24 1.155-1.158 2.567-1.737 4.238-1.737 1.67 0 3.085.579 4.242 1.736 1.158 1.157 1.737 2.57 1.737 4.241a5.88 5.88 0 0 1-.352 2.02 5.616 5.616 0 0 1-.94 1.681l6.2 6.186-.993.993Zm-9.89-6.308c1.281 0 2.364-.442 3.248-1.325.885-.884 1.328-1.967 1.328-3.25s-.443-2.366-1.328-3.25c-.884-.883-1.968-1.325-3.25-1.325-1.281 0-2.364.442-3.247 1.326-.883.883-1.325 1.967-1.325 3.25s.442 2.366 1.325 3.25c.884.882 1.967 1.324 3.25 1.324Z"></path>
</svg>
