<svg xmlns="http://www.w3.org/2000/svg" width="50px" height="50px" viewBox="0 0 24 24" fill="currentColor">
    <path fill-rule="evenodd" d="M3 3h5.187v1.945l.47-.005.015 1.5-.485.005v.86l.439.439-1.06 1.06-.638-.637h-.563v.49h-1.5v-.49H3V3Zm1.5 1.5v2.167h2.187V4.5H4.5ZM15.818 3h5.187v5.167h-1.703v.49h-1.5v-.49h-.725l-.637.637-1.06-1.06.438-.44v-.933l-.455.005-.015-1.5.47-.005V3Zm1.5 1.5v2.167h2.187V4.5h-2.187ZM11 10h2c.04 0 .078.002.116.007l1.096-1.096 1.06 1.06L14 11.245V13c0 .038-.002.075-.006.111l.86.86-1.061 1.06L12.76 14h-1.517l-1.032 1.031-1.06-1.06.855-.855A1.032 1.032 0 0 1 10 13v-1.761L8.733 9.972l1.06-1.06 1.096 1.094c.036-.004.073-.006.111-.006Zm3.96 6.199.858.857v.753l-.344.003.014 1.5.33-.003v1.694h5.187v-5.168h-1.703v-.487h-1.5v.487h-1.084l-.697-.697-1.06 1.06Zm2.358 1.136v2.168h2.187v-2.168h-2.187Zm-13.568-1.5H3v5.168h5.187v-1.62l.61-.007-.014-1.5-.596.006v-.825l.858-.858-1.06-1.06-.698.697h-.922v-.488h-1.5v.487H3.75Zm.75 3.668v-2.168h2.187v2.168H4.5Zm.365-6.385v-2.23h1.5v2.23h-1.5Zm8.253-8.22-2.23.02.014 1.5 2.23-.02-.014-1.5Zm4.684 8.22v-2.23h1.5v2.23h-1.5Zm-4.559 4.716-2.23.021.015 1.5 2.23-.021-.014-1.5Z" clip-rule="evenodd"></path>
</svg>