<svg xmlns="http://www.w3.org/2000/svg" width="50px" height="50px" viewBox="0 0 24 24" fill="currentColor">
    <path fill-rule="evenodd" d="m14.129 4.197-2.173.86-.551-1.396 2.173-.858.55 1.394Zm2.48.233-.278-.688-.691.272-5.07 1.997-.704.277.284.702.801 1.982-3.107 1.413-.876-.883-.532-.537-.533.537-2.38 2.4L3 12.43l.523.529 2.38 2.4.533.537.003-.003 3.312 4.786.223.323H20.61v-1.5h-9.85L7.513 14.81l1.835-1.85.524-.529-.524-.528-.378-.381 2.545-1.158 2.13 5.266.28.69.69-.273 2.536-.998 2.534-.999.705-.277-.284-.702-3.496-8.64Zm-1.852 9.948-2.933-7.249 3.674-1.447 2.933 7.249-1.83.72-1.844.727Zm1.295 3.358 4.019-1.43-.503-1.413-4.02 1.43.504 1.413Zm-9.616-3.97L5.112 12.43l1.324-1.335 1.323 1.335-1.323 1.335Z" clip-rule="evenodd"></path>
</svg>